<svg width="41" height="41" viewBox="0 0 41 41" fill="none" xmlns="http://www.w3.org/2000/svg">
<g clip-path="url(#clip0_7190_13047)">
<path d="M20.4996 0C31.8218 0 41 9.17851 41 20.5C41 31.8215 31.8218 41 20.4996 41C9.17738 41 -0.000839233 31.8215 -0.000839233 20.5C-0.000839233 9.17851 9.17822 0 20.4996 0ZM20.4996 33.5482C27.7121 33.5482 33.5594 27.7014 33.5594 20.4882C33.5594 13.275 27.7129 7.42809 20.4996 7.42809C13.2862 7.42809 7.43973 13.2758 7.43973 20.4882C7.43973 27.7005 13.2871 33.5482 20.4996 33.5482Z" fill="url(#paint0_linear_7190_13047)"/>
<path opacity="0.46" d="M20.7443 34.5406C12.9557 34.5406 7.42935 28.4442 7.42935 21.2251C7.42935 21.1049 7.43527 20.9856 7.43864 20.8672C7.62871 27.9188 13.4017 33.5787 20.4993 33.5787C27.5969 33.5787 33.37 27.9188 33.56 20.8672C33.5634 20.9865 33.5693 21.1049 33.5693 21.2251C33.5693 28.4433 27.9627 34.5406 20.7443 34.5406Z" fill="white"/>
<path d="M20.4993 6.55322C28.3885 6.55322 33.5693 12.5735 33.5693 19.7918C33.5693 19.9119 33.5634 20.0304 33.56 20.1505C33.37 13.0981 27.5969 7.43816 20.4993 7.43816C13.4017 7.43816 7.62871 13.0981 7.43864 20.1505C7.43527 20.0312 7.42935 19.9119 7.42935 19.7918C7.42935 12.5735 12.6102 6.55322 20.4993 6.55322Z" fill="#BD8B00"/>
<path d="M20.4996 40.1617C31.6816 40.1617 40.7711 31.209 40.9949 20.0813C40.9975 20.2209 41 20.3605 41 20.5001C41 31.8224 31.8218 41.0001 20.4996 41.0001C9.17738 41.0001 -0.000839233 31.8216 -0.000839233 20.5001C-0.000839233 20.3596 0.00169373 20.2209 0.00422668 20.0813C0.227242 31.209 9.31761 40.1625 20.4987 40.1625L20.4996 40.1617Z" fill="#F8D134"/>
<path d="M20.4996 0C22.0328 0 23.5255 0.169205 24.9624 0.488156C20.2048 -0.201354 10.9885 0.71066 4.02018 8.30457C7.75567 3.2665 13.7466 0 20.4996 0Z" fill="white"/>
</g>
<defs>
<linearGradient id="paint0_linear_7190_13047" x1="20.4996" y1="-4.64382" x2="20.4996" y2="49.7986" gradientUnits="userSpaceOnUse">
<stop stop-color="#FCEA0D"/>
<stop offset="1" stop-color="#F5AF04"/>
</linearGradient>
<clipPath id="clip0_7190_13047">
<rect width="41" height="41" fill="white" transform="matrix(-1 0 0 1 41 0)"/>
</clipPath>
</defs>
</svg>
